<?xml version="1.0" encoding="utf-8"?>
<!-- Generator: Adobe Illustrator 21.0.2, SVG Export Plug-In . SVG Version: 6.00 Build 0)  -->
<svg version="1.0" id="Calque_1" xmlns="http://www.w3.org/2000/svg" xmlns:xlink="http://www.w3.org/1999/xlink" x="0px" y="0px"
	 viewBox="0 0 1920 1080" style="enable-background:new 0 0 1920 1080;" xml:space="preserve">
<g id="XMLID_13_">
	<g id="XMLID_33_">
		<g id="XMLID_993_">
			<g id="XMLID_994_">
				<polygon id="XMLID_1001_" points="1081.9,49.6 1083.7,50.1 1083.9,49.2 1082.2,48.7 				"/>
				<polygon id="XMLID_1000_" points="1081.5,51 1083.2,51.5 1083.5,50.5 1081.8,50 				"/>
				<polygon id="XMLID_999_" points="1081.1,52.3 1082.8,52.8 1083.1,51.9 1081.4,51.4 				"/>
				
					<rect id="XMLID_998_" x="1081.2" y="52.6" transform="matrix(0.2816 -0.9595 0.9595 0.2816 725.7751 1076.3743)" width="1" height="1.8"/>
				<polygon id="XMLID_997_" points="1080.3,55.1 1082,55.6 1082.3,54.6 1080.6,54.1 				"/>
				<polygon id="XMLID_996_" points="1079.9,56.4 1081.6,56.9 1081.9,56 1080.2,55.5 				"/>
				<polygon id="XMLID_995_" points="1079.5,57.8 1081.2,58.3 1081.5,57.4 1079.8,56.9 				"/>
			</g>
		</g>
		<g id="XMLID_984_">
			<g id="XMLID_985_">
				<polygon id="XMLID_992_" points="1076.5,68.8 1078.2,69.3 1078.4,68.4 1076.7,67.9 				"/>
				<polygon id="XMLID_991_" points="1076.1,70.2 1077.8,70.7 1078.1,69.8 1076.3,69.3 				"/>
				<polygon id="XMLID_990_" points="1075.7,71.6 1077.5,72.1 1077.7,71.1 1076,70.7 				"/>
				
					<rect id="XMLID_989_" x="1075.9" y="71.9" transform="matrix(0.254 -0.9672 0.9672 0.254 732.5921 1095.326)" width="1" height="1.8"/>
				
					<rect id="XMLID_988_" x="1075.5" y="73.2" transform="matrix(0.252 -0.9677 0.9677 0.252 733.093 1096.714)" width="1" height="1.8"/>
				<polygon id="XMLID_987_" points="1074.6,75.8 1076.4,76.2 1076.6,75.3 1074.9,74.8 				"/>
				<polygon id="XMLID_986_" points="1074.3,77.1 1076,77.6 1076.3,76.6 1074.5,76.2 				"/>
			</g>
		</g>
		<g id="XMLID_975_">
			<g id="XMLID_976_">
				<polygon id="XMLID_983_" points="1071.5,88.2 1073.3,88.7 1073.5,87.7 1071.8,87.3 				"/>
				<polygon id="XMLID_982_" points="1071.2,89.6 1073,90 1073.2,89.1 1071.4,88.7 				"/>
				<polygon id="XMLID_981_" points="1070.9,91 1072.6,91.4 1072.8,90.5 1071.1,90.1 				"/>
				
					<rect id="XMLID_980_" x="1071.1" y="91.3" transform="matrix(0.2255 -0.9742 0.9742 0.2255 740.1428 1115.3279)" width="1" height="1.8"/>
				<polygon id="XMLID_979_" points="1070.3,93.8 1072,94.2 1072.2,93.3 1070.5,92.9 				"/>
				<polygon id="XMLID_978_" points="1069.9,95.2 1071.7,95.6 1071.9,94.7 1070.1,94.3 				"/>
				<polygon id="XMLID_977_" points="1069.6,96.6 1071.3,97 1071.6,96.1 1069.8,95.7 				"/>
			</g>
		</g>
		<g id="XMLID_956_">
			<g id="XMLID_957_">
				<polygon id="XMLID_964_" points="1067.2,107.8 1068.9,108.1 1069.1,107.2 1067.4,106.8 				"/>
				<polygon id="XMLID_963_" points="1066.9,109.2 1068.7,109.5 1068.8,108.6 1067.1,108.2 				"/>
				<polygon id="XMLID_962_" points="1066.6,110.6 1068.4,110.9 1068.6,110 1066.8,109.7 				"/>
				
					<rect id="XMLID_961_" x="1066.8" y="110.8" transform="matrix(0.1963 -0.9805 0.9805 0.1963 748.2601 1136.3182)" width="1" height="1.8"/>
				<polygon id="XMLID_960_" points="1066.1,113.4 1067.8,113.7 1068,112.8 1066.3,112.5 				"/>
				<polygon id="XMLID_959_" points="1065.8,114.8 1067.5,115.1 1067.7,114.2 1066,113.9 				"/>
				<polygon id="XMLID_958_" points="1065.5,116.2 1067.3,116.5 1067.4,115.6 1065.7,115.3 				"/>
			</g>
		</g>
		<g id="XMLID_947_">
			<g id="XMLID_948_">
				<polygon id="XMLID_955_" points="1063.4,127.5 1065.2,127.8 1065.3,126.8 1063.6,126.5 				"/>
				<polygon id="XMLID_954_" points="1063.2,128.9 1064.9,129.2 1065.1,128.2 1063.4,127.9 				"/>
				<polygon id="XMLID_953_" points="1063,130.3 1064.7,130.6 1064.9,129.6 1063.1,129.3 				"/>
				
					<rect id="XMLID_952_" x="1063.2" y="130.5" transform="matrix(0.1666 -0.986 0.986 0.1666 756.9853 1158.2949)" width="1" height="1.8"/>
				
					<rect id="XMLID_951_" x="1063" y="131.9" transform="matrix(0.1644 -0.9864 0.9864 0.1644 757.642 1159.9043)" width="1" height="1.8"/>
				<polygon id="XMLID_950_" points="1062.2,134.5 1064,134.8 1064.2,133.8 1062.4,133.6 				"/>
				<polygon id="XMLID_949_" points="1062,135.9 1063.8,136.2 1063.9,135.3 1062.2,135 				"/>
			</g>
		</g>
		<g id="XMLID_938_">
			<g id="XMLID_939_">
				<polygon id="XMLID_946_" points="1060.3,147.2 1062,147.5 1062.2,146.5 1060.4,146.3 				"/>
				<polygon id="XMLID_945_" points="1060.1,148.6 1061.8,148.9 1062,147.9 1060.2,147.7 				"/>
				<polygon id="XMLID_944_" points="1059.9,150.1 1061.6,150.3 1061.8,149.4 1060,149.1 				"/>
				
					<rect id="XMLID_943_" x="1060.2" y="150.2" transform="matrix(0.1363 -0.9907 0.9907 0.1363 766.3702 1181.2611)" width="1" height="1.8"/>
				<polygon id="XMLID_942_" points="1059.5,152.9 1061.3,153.1 1061.4,152.2 1059.6,151.9 				"/>
				<polygon id="XMLID_941_" points="1059.3,154.3 1061.1,154.5 1061.2,153.6 1059.4,153.4 				"/>
				<polygon id="XMLID_940_" points="1059.1,155.7 1060.9,156 1061,155 1059.2,154.8 				"/>
			</g>
		</g>
		<g id="XMLID_929_">
			<g id="XMLID_930_">
				<polygon id="XMLID_937_" points="1057.7,167.1 1059.5,167.3 1059.6,166.3 1057.8,166.1 				"/>
				<polygon id="XMLID_936_" points="1057.6,168.5 1059.3,168.7 1059.4,167.8 1057.7,167.6 				"/>
				<polygon id="XMLID_935_" points="1057.4,169.9 1059.2,170.1 1059.3,169.2 1057.5,169 				"/>
				
					<rect id="XMLID_934_" x="1057.7" y="170.1" transform="matrix(0.1056 -0.9944 0.9944 0.1056 776.4739 1205.2064)" width="1" height="1.8"/>
				<polygon id="XMLID_933_" points="1057.1,172.8 1058.9,173 1059,172 1057.2,171.8 				"/>
				<polygon id="XMLID_932_" points="1057,174.2 1058.7,174.4 1058.8,173.4 1057.1,173.2 				"/>
				<polygon id="XMLID_931_" points="1056.8,175.6 1058.6,175.8 1058.7,174.8 1056.9,174.7 				"/>
			</g>
		</g>
		<g id="XMLID_920_">
			<g id="XMLID_921_">
				<polygon id="XMLID_928_" points="1055.8,187 1057.6,187.2 1057.6,186.2 1055.9,186.1 				"/>
				<polygon id="XMLID_927_" points="1055.7,188.4 1057.4,188.6 1057.5,187.6 1055.7,187.5 				"/>
				<polygon id="XMLID_926_" points="1055.6,189.9 1057.3,190 1057.4,189 1055.6,188.9 				"/>
				
					<rect id="XMLID_925_" x="1055.9" y="190" transform="matrix(7.443471e-02 -0.9972 0.9972 7.443471e-02 787.3973 1230.1252)" width="1" height="1.8"/>
				<polygon id="XMLID_924_" points="1055.4,192.7 1057.1,192.8 1057.2,191.9 1055.4,191.8 				"/>
				<polygon id="XMLID_923_" points="1055.2,194.1 1057,194.3 1057.1,193.3 1055.3,193.2 				"/>
				<polygon id="XMLID_922_" points="1055.1,195.6 1056.9,195.7 1057,194.7 1055.2,194.6 				"/>
			</g>
		</g>
		<g id="XMLID_911_">
			<g id="XMLID_912_">
				<polygon id="XMLID_919_" points="1054.5,207 1056.2,207.1 1056.3,206.1 1054.5,206 				"/>
				<polygon id="XMLID_918_" points="1054.4,208.4 1056.2,208.5 1056.2,207.6 1054.4,207.5 				"/>
				<polygon id="XMLID_917_" points="1054.3,209.9 1056.1,209.9 1056.2,209 1054.4,208.9 				"/>
				
					<rect id="XMLID_916_" x="1054.7" y="210" transform="matrix(4.296209e-02 -0.9991 0.9991 4.296209e-02 799.209 1256.004)" width="1" height="1.8"/>
				<polygon id="XMLID_915_" points="1054.2,212.7 1056,212.8 1056,211.8 1054.3,211.8 				"/>
				<polygon id="XMLID_914_" points="1054.2,214.1 1055.9,214.2 1056,213.3 1054.2,213.2 				"/>
				<polygon id="XMLID_913_" points="1054.1,215.6 1055.9,215.6 1055.9,214.7 1054.1,214.6 				"/>
			</g>
		</g>
		<g id="XMLID_902_">
			<g id="XMLID_903_">
				<polygon id="XMLID_910_" points="1053.8,227 1055.6,227 1055.6,226.1 1053.8,226.1 				"/>
				<polygon id="XMLID_909_" points="1053.8,228.4 1055.6,228.5 1055.6,227.5 1053.8,227.5 				"/>
				<polygon id="XMLID_908_" points="1053.8,229.9 1055.5,229.9 1055.5,228.9 1053.8,228.9 				"/>
				
					<rect id="XMLID_907_" x="1054.2" y="229.9" transform="matrix(1.120602e-02 -0.9999 0.9999 1.120602e-02 811.9954 1282.8175)" width="1" height="1.8"/>
				<polygon id="XMLID_906_" points="1053.7,232.7 1055.5,232.8 1055.5,231.8 1053.7,231.8 				"/>
				<polygon id="XMLID_905_" points="1053.7,234.2 1055.5,234.2 1055.5,233.2 1053.7,233.2 				"/>
				<polygon id="XMLID_904_" points="1053.7,235.6 1055.5,235.6 1055.5,234.6 1053.7,234.6 				"/>
			</g>
		</g>
		<g id="XMLID_893_">
			<g id="XMLID_894_">
				<polygon id="XMLID_901_" points="1053.7,247 1055.5,247 1055.5,246.1 1053.7,246.1 				"/>
				<polygon id="XMLID_900_" points="1053.8,248.5 1055.6,248.4 1055.5,247.5 1053.8,247.5 				"/>
				<polygon id="XMLID_899_" points="1053.8,249.9 1055.6,249.9 1055.6,248.9 1053.8,248.9 				"/>
				
					<rect id="XMLID_898_" x="1053.8" y="250.4" transform="matrix(0.9998 -2.075585e-02 2.075585e-02 0.9998 -4.979 21.9455)" width="1.8" height="1"/>
				<polygon id="XMLID_897_" points="1053.9,252.8 1055.6,252.7 1055.6,251.8 1053.8,251.8 				"/>
				<polygon id="XMLID_896_" points="1053.9,254.2 1055.7,254.1 1055.7,253.2 1053.9,253.2 				"/>
				<polygon id="XMLID_895_" points="1053.9,255.6 1055.7,255.6 1055.7,254.6 1053.9,254.7 				"/>
			</g>
		</g>
		<g id="XMLID_884_">
			<g id="XMLID_885_">
				
					<rect id="XMLID_892_" x="1054.3" y="266.1" transform="matrix(0.9989 -4.595922e-02 4.595922e-02 0.9989 -11.1349 48.7782)" width="1.8" height="1"/>
				
					<rect id="XMLID_891_" x="1054.4" y="267.5" transform="matrix(0.9988 -4.825870e-02 4.825870e-02 0.9988 -11.7022 51.2384)" width="1.8" height="1"/>
				<polygon id="XMLID_890_" points="1054.5,269.9 1056.3,269.8 1056.2,268.9 1054.4,269 				"/>
				<polygon id="XMLID_889_" points="1054.6,271.3 1056.3,271.3 1056.3,270.3 1054.5,270.4 				"/>
				
					<rect id="XMLID_888_" x="1054.6" y="271.8" transform="matrix(0.9985 -5.540534e-02 5.540534e-02 0.9985 -13.4626 58.8987)" width="1.8" height="1"/>
				<polygon id="XMLID_887_" points="1054.7,274.2 1056.5,274.1 1056.4,273.1 1054.7,273.2 				"/>
				<polygon id="XMLID_886_" points="1054.8,275.6 1056.6,275.5 1056.5,274.6 1054.7,274.7 				"/>
			</g>
		</g>
		<g id="XMLID_875_">
			<g id="XMLID_876_">
				<polygon id="XMLID_883_" points="1055.6,287.1 1057.4,286.9 1057.3,286 1055.5,286.1 				"/>
				<polygon id="XMLID_882_" points="1055.7,288.5 1057.5,288.3 1057.4,287.4 1055.7,287.5 				"/>
				<polygon id="XMLID_881_" points="1055.9,289.9 1057.6,289.7 1057.5,288.8 1055.8,288.9 				"/>
				
					<rect id="XMLID_880_" x="1055.9" y="290.3" transform="matrix(0.996 -8.959886e-02 8.959886e-02 0.996 -21.8022 95.8607)" width="1.8" height="1"/>
				<polygon id="XMLID_879_" points="1056.1,292.8 1057.9,292.6 1057.8,291.6 1056,291.8 				"/>
				<polygon id="XMLID_878_" points="1056.2,294.2 1058,294 1057.9,293.1 1056.2,293.2 				"/>
				<polygon id="XMLID_877_" points="1056.4,295.6 1058.1,295.4 1058.1,294.5 1056.3,294.6 				"/>
			</g>
		</g>
		<g id="XMLID_866_">
			<g id="XMLID_867_">
				<polygon id="XMLID_874_" points="1057.6,307 1059.4,306.8 1059.3,305.8 1057.5,306 				"/>
				<polygon id="XMLID_873_" points="1057.8,308.4 1059.6,308.2 1059.5,307.2 1057.7,307.5 				"/>
				<polygon id="XMLID_872_" points="1058,309.8 1059.8,309.6 1059.7,308.6 1057.9,308.9 				"/>
				
					<rect id="XMLID_871_" x="1058.1" y="310.2" transform="matrix(0.9912 -0.1326 0.1326 0.9912 -31.8387 143.1554)" width="1.8" height="1"/>
				<polygon id="XMLID_870_" points="1058.4,312.7 1060.2,312.4 1060,311.5 1058.3,311.7 				"/>
				<polygon id="XMLID_869_" points="1058.6,314.1 1060.3,313.8 1060.2,312.9 1058.5,313.1 				"/>
				<polygon id="XMLID_868_" points="1058.8,315.5 1060.5,315.3 1060.4,314.3 1058.6,314.6 				"/>
			</g>
		</g>
		<g id="XMLID_857_">
			<g id="XMLID_858_">
				<polygon id="XMLID_865_" points="1060.6,326.8 1062.3,326.5 1062.1,325.6 1060.4,325.9 				"/>
				<polygon id="XMLID_864_" points="1060.8,328.2 1062.6,327.9 1062.4,327 1060.6,327.3 				"/>
				<polygon id="XMLID_863_" points="1061.1,329.6 1062.8,329.3 1062.7,328.4 1060.9,328.7 				"/>
				
					<rect id="XMLID_862_" x="1061.2" y="329.9" transform="matrix(0.9838 -0.1791 0.1791 0.9838 -41.998 195.5274)" width="1.8" height="1"/>
				<polygon id="XMLID_861_" points="1061.6,332.5 1063.3,332.1 1063.2,331.2 1061.4,331.5 				"/>
				<polygon id="XMLID_860_" points="1061.8,333.9 1063.6,333.5 1063.4,332.6 1061.7,332.9 				"/>
				<polygon id="XMLID_859_" points="1062.1,335.3 1063.8,334.9 1063.7,334 1061.9,334.3 				"/>
			</g>
		</g>
		<g id="XMLID_848_">
			<g id="XMLID_849_">
				<polygon id="XMLID_856_" points="1064.4,346.5 1066.1,346.1 1065.9,345.2 1064.2,345.5 				"/>
				<polygon id="XMLID_855_" points="1064.7,347.9 1066.5,347.5 1066.2,346.6 1064.5,346.9 				"/>
				<polygon id="XMLID_854_" points="1065,349.3 1066.8,348.9 1066.6,347.9 1064.8,348.3 				"/>
				
					<rect id="XMLID_853_" x="1065.2" y="349.5" transform="matrix(0.9753 -0.2208 0.2208 0.9753 -50.969 244.0535)" width="1.8" height="1"/>
				
					<rect id="XMLID_852_" x="1065.5" y="350.9" transform="matrix(0.9747 -0.2234 0.2234 0.9747 -51.5455 247.0815)" width="1.8" height="1"/>
				<polygon id="XMLID_851_" points="1066,353.5 1067.7,353.1 1067.5,352.1 1065.8,352.5 				"/>
				<polygon id="XMLID_850_" points="1066.3,354.9 1068,354.4 1067.8,353.5 1066.1,353.9 				"/>
			</g>
		</g>
		<g id="XMLID_839_">
			<g id="XMLID_840_">
				<polygon id="XMLID_847_" points="1069,366 1070.7,365.5 1070.5,364.6 1068.8,365 				"/>
				<polygon id="XMLID_846_" points="1069.4,367.3 1071.1,366.9 1070.8,366 1069.1,366.4 				"/>
				<polygon id="XMLID_845_" points="1069.7,368.7 1071.4,368.3 1071.2,367.4 1069.5,367.8 				"/>
				
					<rect id="XMLID_844_" x="1069.9" y="369" transform="matrix(0.9694 -0.2454 0.2454 0.9694 -57.918 274.0853)" width="1.8" height="1"/>
				
					<rect id="XMLID_843_" x="1070.3" y="370.3" transform="matrix(0.9692 -0.2463 0.2463 0.9692 -58.3366 275.2675)" width="1.8" height="1"/>
				
					<rect id="XMLID_842_" x="1070.6" y="371.7" transform="matrix(0.969 -0.2472 0.2472 0.969 -58.7568 276.4511)" width="1.8" height="1"/>
				<polygon id="XMLID_841_" points="1071.1,374.3 1072.8,373.8 1072.6,372.9 1070.9,373.3 				"/>
			</g>
		</g>
		<g id="XMLID_830_">
			<g id="XMLID_831_">
				<polygon id="XMLID_838_" points="1074,385.3 1075.7,384.9 1075.4,384 1073.7,384.4 				"/>
				<polygon id="XMLID_837_" points="1074.3,386.7 1076,386.3 1075.8,385.4 1074.1,385.8 				"/>
				
					<rect id="XMLID_836_" x="1074.5" y="386.9" transform="matrix(0.9694 -0.2456 0.2456 0.9694 -62.2097 275.9333)" width="1.8" height="1"/>
				
					<rect id="XMLID_835_" x="1074.9" y="388.3" transform="matrix(0.9696 -0.2446 0.2446 0.9696 -62.4277 274.9426)" width="1.8" height="1"/>
				
					<rect id="XMLID_834_" x="1075.2" y="389.7" transform="matrix(0.9699 -0.2437 0.2437 0.9699 -62.642 273.9508)" width="1.8" height="1"/>
				<polygon id="XMLID_833_" points="1075.7,392.3 1077.4,391.8 1077.2,390.9 1075.5,391.3 				"/>
				<polygon id="XMLID_832_" points="1076.1,393.6 1077.8,393.2 1077.5,392.3 1075.8,392.7 				"/>
			</g>
		</g>
		<g id="XMLID_821_">
			<g id="XMLID_822_">
				<polygon id="XMLID_829_" points="1078.7,404.7 1080.5,404.3 1080.3,403.4 1078.5,403.8 				"/>
				<polygon id="XMLID_828_" points="1079.1,406.1 1080.8,405.7 1080.6,404.8 1078.8,405.2 				"/>
				<polygon id="XMLID_827_" points="1079.4,407.5 1081.1,407.1 1080.9,406.2 1079.2,406.6 				"/>
				
					<rect id="XMLID_826_" x="1079.6" y="407.8" transform="matrix(0.9751 -0.2216 0.2216 0.9751 -63.6074 249.5911)" width="1.8" height="1"/>
				<polygon id="XMLID_825_" points="1080,410.3 1081.7,409.9 1081.5,409 1079.8,409.4 				"/>
				<polygon id="XMLID_824_" points="1080.3,411.7 1082.1,411.3 1081.8,410.4 1080.1,410.8 				"/>
				<polygon id="XMLID_823_" points="1080.6,413.1 1082.4,412.7 1082.2,411.8 1080.4,412.1 				"/>
			</g>
		</g>
		<g id="XMLID_812_">
			<g id="XMLID_813_">
				<polygon id="XMLID_820_" points="1083,424.2 1084.7,423.9 1084.5,423 1082.8,423.3 				"/>
				<polygon id="XMLID_819_" points="1083.2,425.6 1085,425.3 1084.8,424.4 1083.1,424.7 				"/>
				<polygon id="XMLID_818_" points="1083.5,427 1085.3,426.7 1085.1,425.8 1083.3,426.1 				"/>
				
					<rect id="XMLID_817_" x="1083.7" y="427.3" transform="matrix(0.9823 -0.1872 0.1872 0.9823 -60.9041 210.5433)" width="1.8" height="1"/>
				<polygon id="XMLID_816_" points="1084,429.8 1085.8,429.5 1085.6,428.6 1083.9,428.9 				"/>
				<polygon id="XMLID_815_" points="1084.3,431.3 1086.1,430.9 1085.9,430 1084.1,430.3 				"/>
				<polygon id="XMLID_814_" points="1084.6,432.7 1086.3,432.3 1086.1,431.4 1084.4,431.7 				"/>
			</g>
		</g>
		<g id="XMLID_803_">
			<g id="XMLID_804_">
				<polygon id="XMLID_811_" points="1086.5,443.9 1088.3,443.6 1088.1,442.7 1086.4,442.9 				"/>
				<polygon id="XMLID_810_" points="1086.7,445.3 1088.5,445 1088.3,444.1 1086.6,444.4 				"/>
				<polygon id="XMLID_809_" points="1086.9,446.7 1088.7,446.4 1088.5,445.5 1086.8,445.8 				"/>
				
					<rect id="XMLID_808_" x="1087.1" y="447" transform="matrix(0.9886 -0.1506 0.1506 0.9886 -55.0012 169.0049)" width="1.8" height="1"/>
				<polygon id="XMLID_807_" points="1087.4,449.5 1089.1,449.3 1089,448.3 1087.2,448.6 				"/>
				<polygon id="XMLID_806_" points="1087.6,450.9 1089.3,450.7 1089.2,449.7 1087.4,450 				"/>
				<polygon id="XMLID_805_" points="1087.8,452.4 1089.6,452.1 1089.4,451.2 1087.6,451.4 				"/>
			</g>
		</g>
		<g id="XMLID_794_">
			<g id="XMLID_795_">
				<polygon id="XMLID_802_" points="1089.3,463.7 1091.1,463.4 1091,462.5 1089.2,462.7 				"/>
				<polygon id="XMLID_801_" points="1089.5,465.1 1091.2,464.9 1091.1,463.9 1089.4,464.1 				"/>
				<polygon id="XMLID_800_" points="1089.6,466.5 1091.4,466.3 1091.3,465.3 1089.5,465.5 				"/>
				
					<rect id="XMLID_799_" x="1089.7" y="466.9" transform="matrix(0.9931 -0.117 0.117 0.9931 -47.172 130.7625)" width="1.8" height="1"/>
				<polygon id="XMLID_798_" points="1090,469.3 1091.7,469.1 1091.6,468.2 1089.9,468.4 				"/>
				<polygon id="XMLID_797_" points="1090.1,470.7 1091.9,470.5 1091.8,469.6 1090,469.8 				"/>
				<polygon id="XMLID_796_" points="1090.3,472.2 1092.1,472 1092,471 1090.2,471.2 				"/>
			</g>
		</g>
		<g id="XMLID_785_">
			<g id="XMLID_786_">
				<polygon id="XMLID_793_" points="1091.5,483.5 1093.2,483.4 1093.2,482.4 1091.4,482.6 				"/>
				<polygon id="XMLID_792_" points="1091.6,484.9 1093.4,484.8 1093.3,483.8 1091.5,484 				"/>
				<polygon id="XMLID_791_" points="1091.7,486.4 1093.5,486.2 1093.4,485.2 1091.6,485.4 				"/>
				
					<rect id="XMLID_790_" x="1091.8" y="486.7" transform="matrix(0.9964 -8.529105e-02 8.529105e-02 0.9964 -37.5745 94.9711)" width="1.8" height="1"/>
				<polygon id="XMLID_789_" points="1092,489.2 1093.7,489.1 1093.6,488.1 1091.9,488.2 				"/>
				<polygon id="XMLID_788_" points="1092.1,490.6 1093.8,490.5 1093.8,489.5 1092,489.7 				"/>
				<polygon id="XMLID_787_" points="1092.2,492 1094,491.9 1093.9,490.9 1092.1,491.1 				"/>
			</g>
		</g>
		<g id="XMLID_776_">
			<g id="XMLID_777_">
				<polygon id="XMLID_784_" points="1093,503.4 1094.7,503.3 1094.7,502.4 1092.9,502.5 				"/>
				<polygon id="XMLID_783_" points="1093,504.9 1094.8,504.8 1094.8,503.8 1093,503.9 				"/>
				<polygon id="XMLID_782_" points="1093.1,506.3 1094.9,506.2 1094.8,505.2 1093.1,505.3 				"/>
				
					<rect id="XMLID_781_" x="1093.2" y="506.7" transform="matrix(0.9988 -4.973888e-02 4.973888e-02 0.9988 -23.8724 55.0447)" width="1.8" height="1"/>
				<polygon id="XMLID_780_" points="1093.3,509.1 1095,509 1095,508.1 1093.2,508.2 				"/>
				<polygon id="XMLID_779_" points="1093.3,510.6 1095.1,510.5 1095.1,509.5 1093.3,509.6 				"/>
				<polygon id="XMLID_778_" points="1093.4,512 1095.2,511.9 1095.1,510.9 1093.4,511 				"/>
			</g>
		</g>
		<g id="XMLID_767_">
			<g id="XMLID_768_">
				<polygon id="XMLID_775_" points="1093.7,523.4 1095.5,523.3 1095.5,522.4 1093.7,522.4 				"/>
				<polygon id="XMLID_774_" points="1093.8,524.8 1095.5,524.8 1095.5,523.8 1093.8,523.8 				"/>
				<polygon id="XMLID_773_" points="1093.8,526.2 1095.6,526.2 1095.5,525.2 1093.8,525.3 				"/>
				
					<rect id="XMLID_772_" x="1093.8" y="526.7" transform="matrix(1 -9.618243e-03 9.618243e-03 1 -5.0198 10.5532)" width="1.8" height="1"/>
				<polygon id="XMLID_771_" points="1093.8,529.1 1095.6,529.1 1095.6,528.1 1093.8,528.1 				"/>
				<polygon id="XMLID_770_" points="1093.8,530.5 1095.6,530.5 1095.6,529.5 1093.8,529.5 				"/>
				<polygon id="XMLID_769_" points="1093.8,531.9 1095.6,531.9 1095.6,531 1093.8,531 				"/>
			</g>
		</g>
		<g id="XMLID_758_">
			<g id="XMLID_759_">
				<polygon id="XMLID_766_" points="1093.7,543.3 1095.5,543.4 1095.5,542.4 1093.7,542.4 				"/>
				<polygon id="XMLID_765_" points="1093.6,544.8 1095.4,544.8 1095.5,543.9 1093.7,543.8 				"/>
				<polygon id="XMLID_764_" points="1093.6,546.2 1095.4,546.2 1095.4,545.3 1093.6,545.2 				"/>
				
					<rect id="XMLID_763_" x="1094" y="546.3" transform="matrix(3.414285e-02 -0.9994 0.9994 3.414285e-02 510.242 1622.2974)" width="1" height="1.8"/>
				<polygon id="XMLID_762_" points="1093.5,549 1095.3,549.1 1095.3,548.1 1093.5,548.1 				"/>
				<polygon id="XMLID_761_" points="1093.5,550.5 1095.2,550.5 1095.3,549.6 1093.5,549.5 				"/>
				<polygon id="XMLID_760_" points="1093.4,551.9 1095.2,552 1095.2,551 1093.4,550.9 				"/>
			</g>
		</g>
		<g id="XMLID_749_">
			<g id="XMLID_750_">
				<polygon id="XMLID_757_" points="1092.8,563.3 1094.5,563.4 1094.6,562.4 1092.8,562.3 				"/>
				<polygon id="XMLID_756_" points="1092.6,564.7 1094.4,564.8 1094.5,563.9 1092.7,563.7 				"/>
				<polygon id="XMLID_755_" points="1092.5,566.1 1094.3,566.3 1094.4,565.3 1092.6,565.2 				"/>
				
					<rect id="XMLID_754_" x="1092.9" y="566.2" transform="matrix(7.951451e-02 -0.9968 0.9968 7.951451e-02 441.0694 1611.9109)" width="1" height="1.8"/>
				<polygon id="XMLID_753_" points="1092.3,569 1094.1,569.1 1094.1,568.1 1092.4,568 				"/>
				<polygon id="XMLID_752_" points="1092.2,570.4 1094,570.5 1094,569.6 1092.3,569.4 				"/>
				<polygon id="XMLID_751_" points="1092.1,571.8 1093.8,572 1093.9,571 1092.2,570.8 				"/>
			</g>
		</g>
		<g id="XMLID_740_">
			<g id="XMLID_741_">
				<polygon id="XMLID_748_" points="1090.9,583.1 1092.7,583.3 1092.8,582.4 1091,582.2 				"/>
				<polygon id="XMLID_747_" points="1090.7,584.6 1092.5,584.8 1092.6,583.8 1090.9,583.6 				"/>
				<polygon id="XMLID_746_" points="1090.6,586 1092.3,586.2 1092.4,585.2 1090.7,585 				"/>
				
					<rect id="XMLID_745_" x="1090.9" y="586.1" transform="matrix(0.1226 -0.9925 0.9925 0.1226 374.9205 1598.1318)" width="1" height="1.8"/>
				<polygon id="XMLID_744_" points="1090.2,588.8 1092,589 1092.1,588.1 1090.3,587.8 				"/>
				<polygon id="XMLID_743_" points="1090,590.2 1091.8,590.4 1091.9,589.5 1090.2,589.3 				"/>
				<polygon id="XMLID_742_" points="1089.9,591.6 1091.6,591.9 1091.7,590.9 1090,590.7 				"/>
			</g>
		</g>
		<g id="XMLID_731_">
			<g id="XMLID_732_">
				<polygon id="XMLID_739_" points="1088.2,602.9 1090,603.2 1090.2,602.2 1088.4,602 				"/>
				<polygon id="XMLID_738_" points="1088,604.3 1089.8,604.6 1089.9,603.7 1088.2,603.4 				"/>
				<polygon id="XMLID_737_" points="1087.8,605.7 1089.5,606 1089.7,605.1 1087.9,604.8 				"/>
				
					<rect id="XMLID_736_" x="1088" y="605.9" transform="matrix(0.1584 -0.9874 0.9874 0.1584 316.9229 1585.4542)" width="1" height="1.8"/>
				
					<rect id="XMLID_735_" x="1087.8" y="607.3" transform="matrix(0.1606 -0.987 0.987 0.1606 313.1764 1584.704)" width="1" height="1.8"/>
				<polygon id="XMLID_734_" points="1087.1,610 1088.9,610.3 1089,609.3 1087.3,609 				"/>
				<polygon id="XMLID_733_" points="1086.9,611.4 1088.6,611.7 1088.8,610.7 1087,610.4 				"/>
			</g>
		</g>
		<g id="XMLID_722_">
			<g id="XMLID_723_">
				<polygon id="XMLID_730_" points="1084.9,622.6 1086.7,622.9 1086.8,622 1085.1,621.7 				"/>
				<polygon id="XMLID_729_" points="1084.7,624 1086.4,624.3 1086.6,623.4 1084.8,623.1 				"/>
				<polygon id="XMLID_728_" points="1084.4,625.4 1086.2,625.7 1086.3,624.8 1084.6,624.5 				"/>
				
					<rect id="XMLID_727_" x="1084.6" y="625.6" transform="matrix(0.182 -0.9833 0.9833 0.182 271.5814 1579.4825)" width="1" height="1.8"/>
				
					<rect id="XMLID_726_" x="1084.4" y="627" transform="matrix(0.1832 -0.9831 0.9831 0.1832 268.8271 1579.3807)" width="1" height="1.8"/>
				<polygon id="XMLID_725_" points="1083.6,629.6 1085.4,630 1085.5,629 1083.8,628.7 				"/>
				<polygon id="XMLID_724_" points="1083.4,631 1085.1,631.4 1085.3,630.4 1083.5,630.1 				"/>
			</g>
		</g>
		<g id="XMLID_713_">
			<g id="XMLID_714_">
				
					<rect id="XMLID_721_" x="1081.7" y="641" transform="matrix(0.1907 -0.9816 0.9816 0.1907 245.6478 1581.8296)" width="1" height="1.8"/>
				
					<rect id="XMLID_720_" x="1081.4" y="642.4" transform="matrix(0.1907 -0.9816 0.9816 0.1907 244.0509 1582.697)" width="1" height="1.8"/>
				
					<rect id="XMLID_719_" x="1081.2" y="643.8" transform="matrix(0.1907 -0.9816 0.9816 0.1907 242.4541 1583.5643)" width="1" height="1.8"/>
				
					<rect id="XMLID_718_" x="1080.9" y="645.3" transform="matrix(0.1907 -0.9816 0.9816 0.1907 240.8692 1584.4429)" width="1" height="1.8"/>
				
					<rect id="XMLID_717_" x="1080.6" y="646.7" transform="matrix(0.1907 -0.9816 0.9816 0.1907 239.2601 1585.2992)" width="1" height="1.8"/>
				
					<rect id="XMLID_716_" x="1080.3" y="648.1" transform="matrix(0.1907 -0.9816 0.9816 0.1907 237.6628 1586.1667)" width="1" height="1.8"/>
				
					<rect id="XMLID_715_" x="1080.1" y="649.5" transform="matrix(0.1907 -0.9816 0.9816 0.1907 236.0662 1587.0339)" width="1" height="1.8"/>
			</g>
		</g>
		<g id="XMLID_704_">
			<g id="XMLID_705_">
				<polygon id="XMLID_712_" points="1077.4,661.9 1079.2,662.2 1079.3,661.3 1077.6,660.9 				"/>
				<polygon id="XMLID_711_" points="1077.2,663.3 1078.9,663.6 1079.1,662.7 1077.3,662.3 				"/>
				
					<rect id="XMLID_710_" x="1077.4" y="663.5" transform="matrix(0.1848 -0.9828 0.9828 0.1848 225.7626 1600.9337)" width="1" height="1.8"/>
				
					<rect id="XMLID_709_" x="1077.1" y="664.9" transform="matrix(0.1838 -0.983 0.983 0.1838 225.0895 1602.6582)" width="1" height="1.8"/>
				
					<rect id="XMLID_708_" x="1076.9" y="666.3" transform="matrix(0.1829 -0.9831 0.9831 0.1829 224.3729 1604.3447)" width="1" height="1.8"/>
				<polygon id="XMLID_707_" points="1076.1,668.9 1077.9,669.2 1078,668.3 1076.3,668 				"/>
				<polygon id="XMLID_706_" points="1075.8,670.3 1077.6,670.6 1077.8,669.7 1076,669.4 				"/>
			</g>
		</g>
		<g id="XMLID_695_">
			<g id="XMLID_696_">
				<polygon id="XMLID_703_" points="1073.8,681.6 1075.6,681.9 1075.7,680.9 1074,680.6 				"/>
				<polygon id="XMLID_702_" points="1073.6,683 1075.4,683.3 1075.5,682.3 1073.8,682 				"/>
				<polygon id="XMLID_701_" points="1073.4,684.4 1075.1,684.7 1075.3,683.7 1073.5,683.4 				"/>
				
					<rect id="XMLID_700_" x="1073.6" y="684.6" transform="matrix(0.165 -0.9863 0.9863 0.165 220.7708 1631.7181)" width="1" height="1.8"/>
				
					<rect id="XMLID_699_" x="1073.4" y="686" transform="matrix(0.1633 -0.9866 0.9866 0.1633 220.8308 1634.1461)" width="1" height="1.8"/>
				<polygon id="XMLID_698_" points="1072.7,688.6 1074.4,688.9 1074.6,688 1072.8,687.7 				"/>
				<polygon id="XMLID_697_" points="1072.4,690 1074.2,690.3 1074.3,689.4 1072.6,689.1 				"/>
			</g>
		</g>
		<g id="XMLID_686_">
			<g id="XMLID_687_">
				<polygon id="XMLID_694_" points="1070.7,701.3 1072.4,701.6 1072.6,700.6 1070.8,700.4 				"/>
				<polygon id="XMLID_693_" points="1070.5,702.8 1072.2,703 1072.4,702.1 1070.6,701.8 				"/>
				<polygon id="XMLID_692_" points="1070.3,704.2 1072,704.4 1072.2,703.5 1070.4,703.2 				"/>
				
					<rect id="XMLID_691_" x="1070.5" y="704.3" transform="matrix(0.138 -0.9904 0.9904 0.138 224.694 1668.6488)" width="1" height="1.8"/>
				<polygon id="XMLID_690_" points="1069.9,707 1071.6,707.2 1071.8,706.3 1070,706 				"/>
				<polygon id="XMLID_689_" points="1069.7,708.4 1071.4,708.7 1071.6,707.7 1069.8,707.5 				"/>
				<polygon id="XMLID_688_" points="1069.5,709.8 1071.2,710.1 1071.4,709.1 1069.6,708.9 				"/>
			</g>
		</g>
		<g id="XMLID_677_">
			<g id="XMLID_678_">
				<polygon id="XMLID_685_" points="1068.1,721.2 1069.9,721.4 1070,720.4 1068.2,720.2 				"/>
				<polygon id="XMLID_684_" points="1067.9,722.6 1069.7,722.8 1069.8,721.9 1068,721.7 				"/>
				<polygon id="XMLID_683_" points="1067.8,724 1069.5,724.2 1069.6,723.3 1067.9,723.1 				"/>
				
					<rect id="XMLID_682_" x="1068.1" y="724.2" transform="matrix(0.1071 -0.9943 0.9943 0.1071 233.2453 1709.8633)" width="1" height="1.8"/>
				<polygon id="XMLID_681_" points="1067.5,726.9 1069.2,727.1 1069.3,726.1 1067.6,725.9 				"/>
				<polygon id="XMLID_680_" points="1067.3,728.3 1069.1,728.5 1069.2,727.5 1067.4,727.3 				"/>
				<polygon id="XMLID_679_" points="1067.2,729.7 1068.9,729.9 1069,729 1067.3,728.8 				"/>
			</g>
		</g>
		<g id="XMLID_668_">
			<g id="XMLID_669_">
				<polygon id="XMLID_676_" points="1066.1,741.1 1067.9,741.3 1068,740.3 1066.2,740.2 				"/>
				<polygon id="XMLID_675_" points="1066,742.5 1067.8,742.7 1067.9,741.7 1066.1,741.6 				"/>
				<polygon id="XMLID_674_" points="1065.9,744 1067.7,744.1 1067.8,743.2 1066,743 				"/>
				
					<rect id="XMLID_673_" x="1066.2" y="744.1" transform="matrix(7.498635e-02 -0.9972 0.9972 7.498635e-02 243.8436 1752.8439)" width="1" height="1.8"/>
				<polygon id="XMLID_672_" points="1065.7,746.8 1067.5,747 1067.5,746 1065.8,745.9 				"/>
				<polygon id="XMLID_671_" points="1065.6,748.3 1067.4,748.4 1067.4,747.4 1065.7,747.3 				"/>
				<polygon id="XMLID_670_" points="1065.5,749.7 1067.3,749.8 1067.3,748.8 1065.6,748.7 				"/>
			</g>
		</g>
		<g id="XMLID_659_">
			<g id="XMLID_660_">
				<polygon id="XMLID_667_" points="1064.8,761.1 1066.6,761.2 1066.6,760.2 1064.8,760.1 				"/>
				<polygon id="XMLID_666_" points="1064.7,762.5 1066.5,762.6 1066.6,761.7 1064.8,761.6 				"/>
				<polygon id="XMLID_665_" points="1064.7,764 1066.5,764 1066.5,763.1 1064.7,763 				"/>
				
					<rect id="XMLID_664_" x="1065" y="764.1" transform="matrix(4.386504e-02 -0.999 0.999 4.386504e-02 254.5712 1795.892)" width="1" height="1.8"/>
				<polygon id="XMLID_663_" points="1064.6,766.8 1066.3,766.9 1066.4,765.9 1064.6,765.9 				"/>
				<polygon id="XMLID_662_" points="1064.5,768.2 1066.3,768.3 1066.3,767.4 1064.5,767.3 				"/>
				<polygon id="XMLID_661_" points="1064.4,769.7 1066.2,769.7 1066.2,768.8 1064.5,768.7 				"/>
			</g>
		</g>
		<g id="XMLID_650_">
			<g id="XMLID_651_">
				<polygon id="XMLID_658_" points="1064.1,781.1 1065.9,781.1 1065.9,780.2 1064.1,780.2 				"/>
				<polygon id="XMLID_657_" points="1064.1,782.5 1065.9,782.6 1065.9,781.6 1064.1,781.6 				"/>
				<polygon id="XMLID_656_" points="1064.1,784 1065.8,784 1065.8,783 1064.1,783 				"/>
				
					<rect id="XMLID_655_" x="1064.4" y="784" transform="matrix(1.449621e-02 -0.9999 0.9999 1.449621e-02 264.6371 1838.3738)" width="1" height="1.8"/>
				
					<rect id="XMLID_654_" x="1064.4" y="785.5" transform="matrix(1.246812e-02 -0.9999 0.9999 1.246812e-02 265.3264 1841.3839)" width="1" height="1.8"/>
				<polygon id="XMLID_653_" points="1064,788.3 1065.8,788.3 1065.8,787.3 1064,787.3 				"/>
				<polygon id="XMLID_652_" points="1064,789.7 1065.7,789.7 1065.8,788.7 1064,788.7 				"/>
			</g>
		</g>
		<g id="XMLID_641_">
			<g id="XMLID_642_">
				<polygon id="XMLID_649_" points="1064,801.1 1065.7,801.1 1065.7,800.2 1064,800.2 				"/>
				<polygon id="XMLID_648_" points="1064,802.6 1065.8,802.5 1065.8,801.6 1064,801.6 				"/>
				<polygon id="XMLID_647_" points="1064,804 1065.8,804 1065.8,803 1064,803 				"/>
				
					<rect id="XMLID_646_" x="1064" y="804.5" transform="matrix(0.9999 -1.432449e-02 1.432449e-02 0.9999 -11.4209 15.3369)" width="1.8" height="1"/>
				
					<rect id="XMLID_645_" x="1064" y="805.9" transform="matrix(0.9999 -1.638392e-02 1.638392e-02 0.9999 -13.0684 17.556)" width="1.8" height="1"/>
				<polygon id="XMLID_644_" points="1064.1,808.3 1065.8,808.2 1065.8,807.3 1064.1,807.3 				"/>
				<polygon id="XMLID_643_" points="1064.1,809.7 1065.9,809.7 1065.9,808.7 1064.1,808.8 				"/>
			</g>
		</g>
		<g id="XMLID_632_">
			<g id="XMLID_633_">
				<polygon id="XMLID_640_" points="1064.4,821.1 1066.2,821.1 1066.2,820.1 1064.4,820.2 				"/>
				<polygon id="XMLID_639_" points="1064.5,822.6 1066.3,822.5 1066.2,821.6 1064.4,821.6 				"/>
				<polygon id="XMLID_638_" points="1064.5,824 1066.3,823.9 1066.3,823 1064.5,823 				"/>
				
					<rect id="XMLID_637_" x="1064.6" y="824.4" transform="matrix(0.9991 -4.310780e-02 4.310780e-02 0.9991 -34.57 46.697)" width="1.8" height="1"/>
				<polygon id="XMLID_636_" points="1064.7,826.9 1066.4,826.8 1066.4,825.8 1064.6,825.9 				"/>
				<polygon id="XMLID_635_" points="1064.7,828.3 1066.5,828.2 1066.5,827.3 1064.7,827.3 				"/>
				<polygon id="XMLID_634_" points="1064.8,829.7 1066.6,829.6 1066.5,828.7 1064.7,828.8 				"/>
			</g>
		</g>
		<g id="XMLID_623_">
			<g id="XMLID_624_">
				<polygon id="XMLID_631_" points="1065.4,841.1 1067.2,841 1067.2,840.1 1065.4,840.2 				"/>
				<polygon id="XMLID_630_" points="1065.6,842.6 1067.3,842.4 1067.3,841.5 1065.5,841.6 				"/>
				<polygon id="XMLID_629_" points="1065.7,844 1067.4,843.9 1067.4,842.9 1065.6,843 				"/>
				
					<rect id="XMLID_628_" x="1065.7" y="844.4" transform="matrix(0.9974 -7.154974e-02 7.154974e-02 0.9974 -57.7172 78.4808)" width="1.8" height="1"/>
				<polygon id="XMLID_627_" points="1065.9,846.8 1067.6,846.7 1067.6,845.8 1065.8,845.9 				"/>
				<polygon id="XMLID_626_" points="1066,848.3 1067.7,848.1 1067.7,847.2 1065.9,847.3 				"/>
				<polygon id="XMLID_625_" points="1066.1,849.7 1067.8,849.6 1067.8,848.6 1066,848.7 				"/>
			</g>
		</g>
		<g id="XMLID_614_">
			<g id="XMLID_615_">
				<polygon id="XMLID_622_" points="1067,861.1 1068.8,860.9 1068.7,860 1066.9,860.1 				"/>
				<polygon id="XMLID_621_" points="1067.2,862.5 1069,862.4 1068.9,861.4 1067.1,861.6 				"/>
				<polygon id="XMLID_620_" points="1067.3,863.9 1069.1,863.8 1069,862.8 1067.2,863 				"/>
				
					<rect id="XMLID_619_" x="1067.4" y="864.3" transform="matrix(0.995 -9.954453e-02 9.954453e-02 0.995 -80.7802 110.6392)" width="1.8" height="1"/>
				
					<rect id="XMLID_618_" x="1067.6" y="865.7" transform="matrix(0.9948 -0.1015 0.1015 0.9948 -82.4319 112.9639)" width="1.8" height="1"/>
				<polygon id="XMLID_617_" points="1067.8,868.2 1069.5,868 1069.4,867.1 1067.7,867.3 				"/>
				<polygon id="XMLID_616_" points="1067.9,869.6 1069.7,869.4 1069.6,868.5 1067.8,868.7 				"/>
			</g>
		</g>
		<g id="XMLID_605_">
			<g id="XMLID_606_">
				<polygon id="XMLID_613_" points="1069.2,881 1071,880.8 1070.8,879.8 1069.1,880.1 				"/>
				<polygon id="XMLID_612_" points="1069.4,882.4 1071.1,882.2 1071,881.3 1069.3,881.5 				"/>
				<polygon id="XMLID_611_" points="1069.6,883.8 1071.3,883.6 1071.2,882.7 1069.4,882.9 				"/>
				
					<rect id="XMLID_610_" x="1069.7" y="884.2" transform="matrix(0.9919 -0.127 0.127 0.9919 -103.6735 143.1063)" width="1.8" height="1"/>
				
					<rect id="XMLID_609_" x="1069.8" y="885.6" transform="matrix(0.9917 -0.1289 0.1289 0.9917 -105.2932 145.4243)" width="1.8" height="1"/>
				<polygon id="XMLID_608_" points="1070.1,888.1 1071.9,887.9 1071.7,886.9 1070,887.1 				"/>
				<polygon id="XMLID_607_" points="1070.3,889.5 1072,889.3 1071.9,888.3 1070.2,888.6 				"/>
			</g>
		</g>
		<g id="XMLID_596_">
			<g id="XMLID_597_">
				<polygon id="XMLID_604_" points="1071.9,900.8 1073.6,900.6 1073.5,899.6 1071.7,899.9 				"/>
				<polygon id="XMLID_603_" points="1072.1,902.3 1073.9,902 1073.7,901 1072,901.3 				"/>
				<polygon id="XMLID_602_" points="1072.3,903.7 1074.1,903.4 1073.9,902.4 1072.2,902.7 				"/>
				
					<rect id="XMLID_601_" x="1072.5" y="904" transform="matrix(0.9881 -0.1539 0.1539 0.9881 -126.3741 175.9047)" width="1.8" height="1"/>
				
					<rect id="XMLID_600_" x="1072.7" y="905.4" transform="matrix(0.9878 -0.1557 0.1557 0.9878 -127.9551 178.2068)" width="1.8" height="1"/>
				<polygon id="XMLID_599_" points="1073,907.9 1074.7,907.6 1074.6,906.7 1072.8,907 				"/>
				<polygon id="XMLID_598_" points="1073.2,909.3 1075,909 1074.8,908.1 1073.1,908.4 				"/>
			</g>
		</g>
		<g id="XMLID_587_">
			<g id="XMLID_588_">
				<polygon id="XMLID_595_" points="1075.1,920.6 1076.9,920.3 1076.7,919.3 1074.9,919.7 				"/>
				<polygon id="XMLID_594_" points="1075.4,922 1077.1,921.7 1077,920.7 1075.2,921.1 				"/>
				<polygon id="XMLID_593_" points="1075.6,923.4 1077.4,923.1 1077.2,922.2 1075.5,922.5 				"/>
				
					<rect id="XMLID_592_" x="1075.8" y="923.7" transform="matrix(0.9837 -0.18 0.18 0.9837 -148.757 208.8792)" width="1.8" height="1"/>
				
					<rect id="XMLID_591_" x="1076" y="925.1" transform="matrix(0.9833 -0.1818 0.1818 0.9833 -150.3312 211.2207)" width="1.8" height="1"/>
				<polygon id="XMLID_590_" points="1076.4,927.6 1078.2,927.3 1078,926.4 1076.2,926.7 				"/>
				<polygon id="XMLID_589_" points="1076.7,929 1078.4,928.7 1078.2,927.8 1076.5,928.1 				"/>
			</g>
		</g>
		<g id="XMLID_578_">
			<g id="XMLID_579_">
				<polygon id="XMLID_586_" points="1078.9,940.3 1080.6,939.9 1080.4,939 1078.7,939.3 				"/>
				<polygon id="XMLID_585_" points="1079.2,941.7 1080.9,941.3 1080.7,940.4 1079,940.7 				"/>
				<polygon id="XMLID_584_" points="1079.5,943.1 1081.2,942.7 1081,941.8 1079.3,942.1 				"/>
				
					<rect id="XMLID_583_" x="1079.6" y="943.3" transform="matrix(0.9787 -0.2055 0.2055 0.9787 -170.8726 242.1572)" width="1.8" height="1"/>
				
					<rect id="XMLID_582_" x="1079.9" y="944.7" transform="matrix(0.9783 -0.2073 0.2073 0.9783 -172.4399 244.543)" width="1.8" height="1"/>
				<polygon id="XMLID_581_" points="1080.3,947.3 1082.1,946.9 1081.9,946 1080.1,946.3 				"/>
				<polygon id="XMLID_580_" points="1080.6,948.7 1082.4,948.3 1082.2,947.3 1080.4,947.7 				"/>
			</g>
		</g>
		<g id="XMLID_569_">
			<g id="XMLID_570_">
				<polygon id="XMLID_577_" points="1083.1,959.8 1084.9,959.4 1084.6,958.5 1082.9,958.9 				"/>
				<polygon id="XMLID_576_" points="1083.5,961.2 1085.2,960.8 1085,959.9 1083.2,960.3 				"/>
				<polygon id="XMLID_575_" points="1083.8,962.6 1085.5,962.2 1085.3,961.3 1083.6,961.7 				"/>
				
					<rect id="XMLID_574_" x="1084" y="962.9" transform="matrix(0.9731 -0.2302 0.2302 0.9731 -192.656 275.6703)" width="1.8" height="1"/>
				
					<rect id="XMLID_573_" x="1084.3" y="964.2" transform="matrix(0.9727 -0.232 0.232 0.9727 -194.2051 278.0847)" width="1.8" height="1"/>
				<polygon id="XMLID_572_" points="1084.8,966.8 1086.5,966.4 1086.3,965.4 1084.5,965.9 				"/>
				<polygon id="XMLID_571_" points="1085.1,968.2 1086.8,967.8 1086.6,966.8 1084.9,967.2 				"/>
			</g>
		</g>
		<g id="XMLID_560_">
			<g id="XMLID_561_">
				<polygon id="XMLID_568_" points="1087.9,979.3 1089.6,978.8 1089.4,977.9 1087.6,978.3 				"/>
				<polygon id="XMLID_567_" points="1088.2,980.7 1090,980.2 1089.7,979.3 1088,979.7 				"/>
				<polygon id="XMLID_566_" points="1088.6,982 1090.3,981.6 1090.1,980.7 1088.4,981.1 				"/>
				
					<rect id="XMLID_565_" x="1088.8" y="982.3" transform="matrix(0.9671 -0.2543 0.2543 0.9671 -214.0525 309.3546)" width="1.8" height="1"/>
				
					<rect id="XMLID_564_" x="1089.2" y="983.6" transform="matrix(0.9667 -0.2559 0.2559 0.9667 -215.5704 311.7762)" width="1.8" height="1"/>
				<polygon id="XMLID_563_" points="1089.7,986.2 1091.4,985.7 1091.2,984.8 1089.4,985.3 				"/>
				<polygon id="XMLID_562_" points="1090.1,987.6 1091.8,987.1 1091.5,986.2 1089.8,986.6 				"/>
			</g>
		</g>
		<g id="XMLID_551_">
			<g id="XMLID_552_">
				<polygon id="XMLID_559_" points="1093.1,998.6 1094.8,998.1 1094.5,997.2 1092.8,997.7 				"/>
				<polygon id="XMLID_558_" points="1093.5,1000 1095.2,999.5 1094.9,998.6 1093.2,999 				"/>
				<polygon id="XMLID_557_" points="1093.9,1001.3 1095.6,1000.9 1095.3,999.9 1093.6,1000.4 				"/>
				
					<rect id="XMLID_556_" x="1094.1" y="1001.5" transform="matrix(0.9607 -0.2775 0.2775 0.9607 -235.0652 343.2444)" width="1.8" height="1"/>
				
					<rect id="XMLID_555_" x="1094.5" y="1002.9" transform="matrix(0.9602 -0.2792 0.2792 0.9602 -236.5495 345.6693)" width="1.8" height="1"/>
				<polygon id="XMLID_554_" points="1095.1,1005.5 1096.8,1005 1096.5,1004 1094.8,1004.5 				"/>
				<polygon id="XMLID_553_" points="1095.5,1006.8 1097.2,1006.3 1096.9,1005.4 1095.2,1005.9 				"/>
			</g>
		</g>
		<g id="XMLID_542_">
			<g id="XMLID_543_">
				<polygon id="XMLID_550_" points="1098.8,1017.8 1100.5,1017.3 1100.2,1016.4 1098.5,1016.9 				"/>
				<polygon id="XMLID_549_" points="1099.2,1019.2 1100.9,1018.6 1100.6,1017.7 1098.9,1018.2 				"/>
				<polygon id="XMLID_548_" points="1099.6,1020.5 1101.3,1020 1101,1019.1 1099.4,1019.6 				"/>
				
					<rect id="XMLID_547_" x="1099.9" y="1020.7" transform="matrix(0.9539 -0.3001 0.3001 0.9539 -255.703 377.3889)" width="1.8" height="1"/>
				
					<rect id="XMLID_546_" x="1100.3" y="1022" transform="matrix(0.9534 -0.3016 0.3016 0.9534 -257.1422 379.7947)" width="1.8" height="1"/>
				<polygon id="XMLID_545_" points="1100.9,1024.6 1102.6,1024.1 1102.3,1023.2 1100.6,1023.7 				"/>
				<polygon id="XMLID_544_" points="1101.4,1026 1103,1025.4 1102.8,1024.5 1101.1,1025.1 				"/>
			</g>
		</g>
		<g id="XMLID_533_">
			<g id="XMLID_534_">
				<polygon id="XMLID_541_" points="1104.9,1036.8 1106.6,1036.3 1106.3,1035.4 1104.6,1035.9 				"/>
				<polygon id="XMLID_540_" points="1105.4,1038.2 1107.1,1037.6 1106.8,1036.7 1105.1,1037.3 				"/>
				<polygon id="XMLID_539_" points="1105.8,1039.6 1107.5,1039 1107.2,1038.1 1105.5,1038.6 				"/>
				
					<rect id="XMLID_538_" x="1106.1" y="1039.7" transform="matrix(0.9468 -0.3218 0.3218 0.9468 -275.8753 411.6265)" width="1.8" height="1"/>
				
					<rect id="XMLID_537_" x="1106.6" y="1041" transform="matrix(0.9463 -0.3234 0.3234 0.9463 -277.2967 414.0719)" width="1.8" height="1"/>
				<polygon id="XMLID_536_" points="1107.2,1043.6 1108.9,1043 1108.6,1042.1 1106.9,1042.7 				"/>
				<polygon id="XMLID_535_" points="1107.7,1045 1109.4,1044.4 1109,1043.5 1107.4,1044.1 				"/>
			</g>
		</g>
		<g id="XMLID_524_">
			<g id="XMLID_525_">
				<polygon id="XMLID_532_" points="1111.5,1055.8 1113.2,1055.2 1112.8,1054.3 1111.1,1054.9 				"/>
				<polygon id="XMLID_531_" points="1112,1057.1 1113.6,1056.5 1113.3,1055.6 1111.6,1056.2 				"/>
				<polygon id="XMLID_530_" points="1112.5,1058.4 1114.1,1057.8 1113.8,1056.9 1112.1,1057.5 				"/>
				
					<rect id="XMLID_529_" x="1112.7" y="1058.6" transform="matrix(0.9394 -0.3429 0.3429 0.9394 -295.647 446.118)" width="1.8" height="1"/>
				
					<rect id="XMLID_528_" x="1113.2" y="1059.9" transform="matrix(0.9388 -0.3444 0.3444 0.9388 -297.0237 448.5448)" width="1.8" height="1"/>
				<polygon id="XMLID_527_" points="1113.9,1062.5 1115.6,1061.9 1115.3,1061 1113.6,1061.6 				"/>
				<polygon id="XMLID_526_" points="1114.4,1063.8 1116.1,1063.2 1115.8,1062.3 1114.1,1062.9 				"/>
			</g>
		</g>
		<g id="XMLID_34_">
			<g id="XMLID_35_">
				
					<rect id="XMLID_523_" x="1118.1" y="1073.3" transform="matrix(0.9336 -0.3583 0.3583 0.9336 -310.2636 472.131)" width="1.8" height="0.1"/>
				
					<rect id="XMLID_522_" x="1118.1" y="1073.4" transform="matrix(0.9336 -0.3583 0.3583 0.9336 -310.2938 472.1495)" width="1.8" height="0.1"/>
				
					<rect id="XMLID_521_" x="1118.1" y="1073.5" transform="matrix(0.9336 -0.3583 0.3583 0.9336 -310.3239 472.168)" width="1.8" height="0.1"/>
				
					<rect id="XMLID_520_" x="1118.2" y="1073.6" transform="matrix(0.9336 -0.3583 0.3583 0.9336 -310.3926 472.2781)" width="1.8" height="0.1"/>
				
					<rect id="XMLID_519_" x="1118.2" y="1073.7" transform="matrix(0.9336 -0.3583 0.3583 0.9336 -310.4228 472.2966)" width="1.8" height="0.1"/>
				
					<rect id="XMLID_518_" x="1118.2" y="1073.8" transform="matrix(0.9336 -0.3583 0.3583 0.9336 -310.4144 472.2234)" width="1.8" height="0.1"/>
				
					<rect id="XMLID_517_" x="1118.3" y="1073.8" transform="matrix(0.9336 -0.3583 0.3583 0.9336 -310.4445 472.2419)" width="1.8" height="0.1"/>
			</g>
		</g>
	</g>
</g>
</svg>
